HIERARCHY
ROOT Hips
{
	OFFSET 0.000000 100.481300 0.000000
	CHANNELS 6 Xposition Yposition Zposition Xrotation Yrotation Zrotation 
	JOINT Spine
	{
		OFFSET -0.279200 12.230698 -2.892100
		CHANNELS 3 Xrotation Yrotation Zrotation
		JOINT Spine1
		{
			OFFSET -0.232667 10.192268 -1.242267
			CHANNELS 3 Xrotation Yrotation Zrotation
			JOINT Spine1_split
			{
				OFFSET -0.232667 10.192268 -1.242267
				CHANNELS 3 Xrotation Yrotation Zrotation
				JOINT Spine2
				{
					OFFSET -0.232667 10.192268 -1.242267
					CHANNELS 3 Xrotation Yrotation Zrotation
					JOINT Neck
					{
						OFFSET -0.418800 17.814194 8.416900
						CHANNELS 3 Xrotation Yrotation Zrotation
						JOINT Head
						{
							OFFSET 0.000000 7.031097 3.806800
							CHANNELS 3 Xrotation Yrotation Zrotation
							JOINT HeadTop_End
							{
								OFFSET 0.000000 24.646606 12.978600
								CHANNELS 3 Xrotation Yrotation Zrotation
								End Site
								{
									OFFSET 0.000000 0.000000 0.000000
								}
							}
						}
					}
					JOINT LeftShoulder
					{
						OFFSET 8.476499 7.247704 -3.868750
						CHANNELS 3 Xrotation Yrotation Zrotation
						JOINT LeftShoulder_split
						{
							OFFSET 8.476499 7.247704 -3.868750
							CHANNELS 3 Xrotation Yrotation Zrotation
							JOINT LeftArm
							{
								OFFSET 9.308998 -2.777710 0.208600
								CHANNELS 3 Xrotation Yrotation Zrotation
								JOINT LeftForeArm
								{
									OFFSET 29.972298 0.000000 0.000000
									CHANNELS 3 Xrotation Yrotation Zrotation
									JOINT LeftHand
									{
										OFFSET 26.026505 0.000000 0.000000
										CHANNELS 3 Xrotation Yrotation Zrotation
										JOINT LeftHandThumb1
										{
											OFFSET 12.240501 -7.147949 9.207150
											CHANNELS 3 Xrotation Yrotation Zrotation
											JOINT LeftHandThumb2
											{
												OFFSET 4.138618 -2.389435 2.389433
												CHANNELS 3 Xrotation Yrotation Zrotation
												JOINT LeftHandThumb3
												{
													OFFSET 2.726913 -1.574387 1.574386
													CHANNELS 3 Xrotation Yrotation Zrotation
													JOINT LeftHandThumb4
													{
														OFFSET 3.941010 -2.275345 2.275342
														CHANNELS 3 Xrotation Yrotation Zrotation
														End Site
														{
															OFFSET 0.000000 0.000000 0.000000
														}
													}
												}
											}
										}
										JOINT LeftHandIndex1
										{
											OFFSET 24.424698 -1.985611 5.953459
											CHANNELS 3 Xrotation Yrotation Zrotation
											JOINT LeftHandIndex2
											{
												OFFSET 6.426697 0.000000 0.000000
												CHANNELS 3 Xrotation Yrotation Zrotation
												JOINT LeftHandIndex3
												{
													OFFSET 5.337898 0.000000 0.000000
													CHANNELS 3 Xrotation Yrotation Zrotation
													JOINT LeftHandIndex4
													{
														OFFSET 4.409401 0.000000 0.000000
														CHANNELS 3 Xrotation Yrotation Zrotation
														End Site
														{
															OFFSET 0.000000 0.000000 0.000000
														}
													}
												}
											}
										}
										JOINT LeftHandMiddle1
										{
											OFFSET 23.810104 0.000000 0.000000
											CHANNELS 3 Xrotation Yrotation Zrotation
											JOINT LeftHandMiddle2
											{
												OFFSET 7.176498 0.000000 0.000000
												CHANNELS 3 Xrotation Yrotation Zrotation
												JOINT LeftHandMiddle3
												{
													OFFSET 6.774902 0.000000 0.000000
													CHANNELS 3 Xrotation Yrotation Zrotation
													JOINT LeftHandMiddle4
													{
														OFFSET 5.403328 0.000000 0.000000
														CHANNELS 3 Xrotation Yrotation Zrotation
														End Site
														{
															OFFSET 0.000000 0.000000 0.000000
														}
													}
												}
											}
										}
										JOINT LeftHandRing1
										{
											OFFSET 22.908401 -0.839279 -6.020567
											CHANNELS 3 Xrotation Yrotation Zrotation
											JOINT LeftHandRing2
											{
												OFFSET 6.337502 0.000000 0.000000
												CHANNELS 3 Xrotation Yrotation Zrotation
												JOINT LeftHandRing3
												{
													OFFSET 5.779297 0.000000 0.000000
													CHANNELS 3 Xrotation Yrotation Zrotation
													JOINT LeftHandRing4
													{
														OFFSET 4.965698 0.000000 0.000000
														CHANNELS 3 Xrotation Yrotation Zrotation
														End Site
														{
															OFFSET 0.000000 0.000000 0.000000
														}
													}
												}
											}
										}
										JOINT LeftHandPinky1
										{
											OFFSET 20.037003 -1.530319 -10.950146
											CHANNELS 3 Xrotation Yrotation Zrotation
											JOINT LeftHandPinky2
											{
												OFFSET 5.254700 0.000000 0.000000
												CHANNELS 3 Xrotation Yrotation Zrotation
												JOINT LeftHandPinky3
												{
													OFFSET 4.810204 0.000000 0.000000
													CHANNELS 3 Xrotation Yrotation Zrotation
													JOINT LeftHandPinky4
													{
														OFFSET 3.647202 0.000000 0.000000
														CHANNELS 3 Xrotation Yrotation Zrotation
														End Site
														{
															OFFSET 0.000000 0.000000 0.000000
														}
													}
												}
											}
										}
									}
								}
							}
						}
					}
					JOINT RightShoulder
					{
						OFFSET -7.570500 7.247704 -3.868750
						CHANNELS 3 Xrotation Yrotation Zrotation
						JOINT RightShoulder_split
						{
							OFFSET -7.570500 7.247704 -3.868750
							CHANNELS 3 Xrotation Yrotation Zrotation
							JOINT RightArm
							{
								OFFSET -9.308998 -2.777710 0.208500
								CHANNELS 3 Xrotation Yrotation Zrotation
								JOINT RightForeArm
								{
									OFFSET -29.972300 0.000000 0.000000
									CHANNELS 3 Xrotation Yrotation Zrotation
									JOINT RightHand
									{
										OFFSET -26.026505 0.000000 0.000000
										CHANNELS 3 Xrotation Yrotation Zrotation
										JOINT RightHandThumb1
										{
											OFFSET -12.240601 -7.148026 9.207092
											CHANNELS 3 Xrotation Yrotation Zrotation
											JOINT RightHandThumb2
											{
												OFFSET -4.138618 -2.389435 2.389433
												CHANNELS 3 Xrotation Yrotation Zrotation
												JOINT RightHandThumb3
												{
													OFFSET -2.726974 -1.574417 1.574421
													CHANNELS 3 Xrotation Yrotation Zrotation
													JOINT RightHandThumb4
													{
														OFFSET -3.941010 -2.275345 2.275343
														CHANNELS 3 Xrotation Yrotation Zrotation
														End Site
														{
															OFFSET 0.000000 0.000000 0.000000
														}
													}
												}
											}
										}
										JOINT RightHandIndex1
										{
											OFFSET -24.424698 -1.985657 5.953444
											CHANNELS 3 Xrotation Yrotation Zrotation
											JOINT RightHandIndex2
											{
												OFFSET -6.426697 0.000000 0.000000
												CHANNELS 3 Xrotation Yrotation Zrotation
												JOINT RightHandIndex3
												{
													OFFSET -5.337898 0.000000 0.000000
													CHANNELS 3 Xrotation Yrotation Zrotation
													JOINT RightHandIndex4
													{
														OFFSET -4.409401 0.000000 0.000000
														CHANNELS 3 Xrotation Yrotation Zrotation
														End Site
														{
															OFFSET 0.000000 0.000000 0.000000
														}
													}
												}
											}
										}
										JOINT RightHandMiddle1
										{
											OFFSET -23.810097 0.000000 0.000000
											CHANNELS 3 Xrotation Yrotation Zrotation
											JOINT RightHandMiddle2
											{
												OFFSET -7.176498 0.000000 0.000000
												CHANNELS 3 Xrotation Yrotation Zrotation
												JOINT RightHandMiddle3
												{
													OFFSET -6.774902 0.000000 0.000000
													CHANNELS 3 Xrotation Yrotation Zrotation
													JOINT RightHandMiddle4
													{
														OFFSET -5.403328 0.000000 0.000000
														CHANNELS 3 Xrotation Yrotation Zrotation
														End Site
														{
															OFFSET 0.000000 0.000000 0.000000
														}
													}
												}
											}
										}
										JOINT RightHandRing1
										{
											OFFSET -22.908302 -0.839325 -6.020576
											CHANNELS 3 Xrotation Yrotation Zrotation
											JOINT RightHandRing2
											{
												OFFSET -6.337502 0.000000 0.000000
												CHANNELS 3 Xrotation Yrotation Zrotation
												JOINT RightHandRing3
												{
													OFFSET -5.779297 0.000000 0.000000
													CHANNELS 3 Xrotation Yrotation Zrotation
													JOINT RightHandRing4
													{
														OFFSET -4.965698 0.000000 0.000000
														CHANNELS 3 Xrotation Yrotation Zrotation
														End Site
														{
															OFFSET 0.000000 0.000000 0.000000
														}
													}
												}
											}
										}
										JOINT RightHandPinky1
										{
											OFFSET -20.037003 -1.530334 -10.950259
											CHANNELS 3 Xrotation Yrotation Zrotation
											JOINT RightHandPinky2
											{
												OFFSET -5.254700 0.000000 0.000000
												CHANNELS 3 Xrotation Yrotation Zrotation
												JOINT RightHandPinky3
												{
													OFFSET -4.810204 0.000000 0.000000
													CHANNELS 3 Xrotation Yrotation Zrotation
													JOINT RightHandPinky4
													{
														OFFSET -3.647202 0.000000 0.000000
														CHANNELS 3 Xrotation Yrotation Zrotation
														End Site
														{
															OFFSET 0.000000 0.000000 0.000000
														}
													}
												}
											}
										}
									}
								}
							}
						}
					}
				}
			}
		}
	}
	JOINT LeftUpLeg
	{
		OFFSET 15.427100 -6.655098 0.678600
		CHANNELS 3 Xrotation Yrotation Zrotation
		JOINT LeftLeg
		{
			OFFSET 4.081073 -39.591068 13.024000
			CHANNELS 3 Xrotation Yrotation Zrotation
			JOINT LeftFoot
			{
				OFFSET -4.081074 -37.707932 -15.979700
				CHANNELS 3 Xrotation Yrotation Zrotation
				JOINT LeftToeBase
				{
					OFFSET 5.346399 -15.068900 20.645000
					CHANNELS 3 Xrotation Yrotation Zrotation
					JOINT LeftToe_End
					{
						OFFSET 2.754700 0.931300 11.300900
						CHANNELS 3 Xrotation Yrotation Zrotation
						End Site
						{
							OFFSET 0.000000 0.000000 0.000000
						}
					}
				}
			}
		}
	}
	JOINT RightUpLeg
	{
		OFFSET -15.569500 -6.655098 0.678600
		CHANNELS 3 Xrotation Yrotation Zrotation
		JOINT RightLeg
		{
			OFFSET -4.081825 -39.591045 13.023800
			CHANNELS 3 Xrotation Yrotation Zrotation
			JOINT RightFoot
			{
				OFFSET 4.081824 -37.707954 -15.979600
				CHANNELS 3 Xrotation Yrotation Zrotation
				JOINT RightToeBase
				{
					OFFSET -5.346400 -15.068900 20.645000
					CHANNELS 3 Xrotation Yrotation Zrotation
					JOINT RightToe_End
					{
						OFFSET -2.754700 0.931300 11.300900
						CHANNELS 3 Xrotation Yrotation Zrotation
						End Site
						{
							OFFSET 0.000000 0.000000 0.000000
						}
					}
				}
			}
		}
	}
}
MOTION
Frames: 5
Frame Time: 0.016667
10.293971 79.142853 -13.841652 55.086971 -6.797824 5.341859 6.438261 0.133711 -1.705089 15.063535 1.404744 -0.847226 0.000000 0.000000 0.000000 25.668457 1.557015 -0.177841 -24.368151 -0.913412 3.954654 -18.158084 5.659346 -4.296260 0.000002 0.000000 -0.000000 3.359790 -11.332868 0.850120 0.000000 0.000000 0.000000 -25.850606 -35.679713 -27.707661 -0.000013 -43.985288 -0.000008 -8.602279 -8.370899 31.241155 0.699766 -6.020111 19.223941 19.074647 26.512441 -1.026360 3.271070 -0.981144 3.963644 0.000001 0.000004 -0.000002 0.483446 4.482289 -23.673221 0.882583 3.094048 -31.835088 0.339551 1.967244 -19.583706 0.000001 -0.000001 -0.000002 2.472071 8.725189 -25.286112 1.505501 3.921813 -41.988824 0.476278 2.315673 -23.241418 -0.000000 0.000002 0.000000 3.074532 8.498798 -34.787622 1.107457 3.429294 -35.785943 0.533253 2.443974 -24.613647 -0.000000 -0.000001 0.000000 3.603268 12.761705 -45.581291 0.673751 2.729600 -27.725819 0.090003 1.024030 -10.045307 -0.000001 -0.000000 0.000001 0.611282 31.893640 8.610644 0.000000 0.000000 0.000000 -33.996816 35.443771 11.882216 0.000001 24.919380 0.000002 0.648391 -4.749865 3.169656 -0.201455 3.035681 -7.196444 8.074861 6.487003 -14.042697 4.117389 15.542667 -37.393561 0.000001 0.000001 0.000001 -3.681009 8.703996 18.305348 0.000002 -0.000003 -0.000000 0.115861 -1.033407 12.793098 -0.000001 0.000002 -0.000000 -0.122554 9.697886 1.310625 0.695563 -2.450410 31.689837 0.176463 -1.271122 15.805843 -0.000000 -0.000000 -0.000001 -0.568123 7.106770 4.105418 0.435112 -1.967350 24.939886 0.261906 -1.541266 19.286827 -0.000001 -0.000001 0.000001 -8.414105 -1.159768 -7.809534 0.946328 -2.816012 37.143665 0.177128 -1.273470 15.836145 0.000003 0.000002 -0.000003 -90.612192 -8.031930 9.779776 48.890316 8.300026 -5.063377 -8.293043 14.729368 -6.553464 -6.672986 0.000000 0.000002 -0.000001 0.000001 -0.000000 -55.872351 6.765323 -8.096808 61.151531 3.182312 -4.377756 -3.649282 -3.004125 5.424679 -20.380675 -0.581314 9.218482 0.000001 0.000001 0.000000 
10.155034 79.992920 -13.370667 53.758145 -7.046554 5.348693 6.390706 -0.128549 -1.729587 14.959062 1.376008 -0.738084 0.000000 0.000000 0.000000 25.530282 1.548437 -0.069470 -24.070883 -0.806831 3.898660 -17.895415 6.094573 -4.244755 -0.000001 0.000000 -0.000000 3.327517 -11.257727 0.298060 0.000000 0.000000 0.000000 -24.534528 -35.097316 -28.878006 -0.000011 -43.052766 0.000003 -8.186016 -8.336844 30.259019 0.699760 -6.020115 19.223948 19.074652 26.512424 -1.026317 3.271084 -0.981150 3.963644 0.000002 0.000003 0.000005 0.483158 4.482383 -23.673098 0.882598 3.094066 -31.835187 0.339548 1.967257 -19.583703 -0.000001 -0.000001 -0.000001 2.472263 8.725269 -25.287809 1.505390 3.921676 -41.987140 0.476274 2.315676 -23.241413 0.000000 0.000000 0.000001 3.074703 8.498847 -34.789575 1.107347 3.429167 -35.783962 0.533251 2.443961 -24.613652 0.000000 0.000000 -0.000001 3.603263 12.761698 -45.581285 0.673747 2.729597 -27.725809 0.090000 1.024035 -10.045309 0.000001 -0.000003 0.000002 0.454106 31.771875 9.248693 0.000000 0.000000 0.000000 -33.054810 34.716861 13.054997 0.000006 24.898761 -0.000005 0.795427 -4.377380 5.700444 -0.201462 3.035677 -7.196439 8.074869 6.487017 -14.042712 4.094449 15.548640 -37.387858 0.000000 -0.000001 0.000006 -3.680999 8.703989 18.305341 -0.000002 0.000000 -0.000000 0.115855 -1.033404 12.793103 -0.000002 -0.000001 -0.000000 -0.122536 9.697883 1.310558 0.695577 -2.450401 31.689913 0.176447 -1.271111 15.805853 0.000001 -0.000001 -0.000002 -0.568085 7.106793 4.105306 0.435113 -1.967356 24.940017 0.261906 -1.541268 19.286839 0.000002 0.000002 -0.000003 -8.414090 -1.159781 -7.809524 0.946327 -2.816007 37.143675 0.177125 -1.273493 15.836127 0.000002 -0.000003 0.000002 -87.934499 -7.737149 9.930056 47.665380 8.155512 -5.076212 -8.411069 15.043954 -6.504499 -6.604022 0.000001 -0.000001 -0.000000 -0.000000 0.000000 -57.854482 7.147195 -8.288550 61.800535 2.398792 -4.061169 -4.542611 -3.039094 5.558508 -19.941448 -0.492572 8.286552 0.000002 -0.000000 0.000001 
10.048477 80.830444 -12.808044 52.406956 -7.382624 5.295854 6.347766 -0.315495 -1.706186 14.862673 1.352667 -0.606153 0.000000 0.000000 0.000000 25.397852 1.548555 0.060529 -23.787341 -0.699830 3.812283 -17.607302 6.465523 -4.232233 -0.000001 -0.000000 -0.000000 3.282053 -11.154451 -0.322864 0.000000 0.000000 0.000000 -23.304160 -34.650137 -30.083333 0.000019 -41.915928 0.000010 -7.881272 -8.386947 29.199701 0.699751 -6.020123 19.223924 19.074640 26.512446 -1.026331 3.271085 -0.981160 3.963642 -0.000001 -0.000001 -0.000004 0.482885 4.482496 -23.672976 0.882601 3.094069 -31.835293 0.339551 1.967265 -19.583705 -0.000002 0.000000 -0.000003 2.472450 8.725390 -25.289515 1.505275 3.921542 -41.985439 0.476278 2.315657 -23.241421 0.000000 -0.000000 -0.000001 3.074915 8.498950 -34.791501 1.107229 3.428975 -35.782029 0.533256 2.443979 -24.613654 -0.000000 0.000002 0.000000 3.603274 12.761708 -45.581281 0.673758 2.729580 -27.725830 0.090002 1.024047 -10.045305 -0.000000 0.000000 0.000001 0.383119 31.571573 9.612376 0.000000 0.000000 0.000000 -32.161892 33.923688 14.344972 -0.000004 24.743661 -0.000008 0.798863 -3.969762 7.957808 -0.201454 3.035679 -7.196444 8.074844 6.487009 -14.042692 4.071192 15.554738 -37.382080 -0.000000 0.000001 0.000002 -3.680996 8.703999 18.305330 -0.000002 -0.000007 -0.000009 0.115856 -1.033410 12.793102 0.000002 -0.000000 0.000001 -0.122525 9.697897 1.310507 0.695576 -2.450432 31.689943 0.176456 -1.271120 15.805850 0.000000 -0.000000 0.000002 -0.568069 7.106799 4.105140 0.435112 -1.967372 24.940164 0.261902 -1.541258 19.286844 0.000002 0.000003 -0.000003 -8.414096 -1.159769 -7.809550 0.946317 -2.816009 37.143675 0.177123 -1.273477 15.836137 0.000001 -0.000000 -0.000001 -85.196351 -7.426197 10.149519 46.510808 7.964279 -5.110935 -8.651883 15.360926 -6.403239 -6.547585 0.000007 0.000002 -0.000001 -0.000000 -0.000000 -59.477882 7.373165 -8.651904 61.744896 1.211162 -3.672359 -5.479740 -3.095575 5.547162 -19.527241 -0.404885 7.330981 0.000001 -0.000000 -0.000000 
9.969605 81.693573 -12.181183 51.074065 -7.770383 5.172834 6.298624 -0.451282 -1.648305 14.751820 1.342870 -0.457023 0.000000 0.000000 0.000000 25.248587 1.564635 0.205129 -23.519842 -0.601491 3.713257 -17.310537 6.769746 -4.222799 0.000001 0.000000 -0.000000 3.231813 -11.021966 -0.952622 0.000000 0.000000 0.000000 -22.238230 -34.231549 -31.346641 -0.000007 -40.754516 0.000002 -7.654821 -8.345731 28.070063 0.699751 -6.020118 19.223917 19.074645 26.512448 -1.026316 3.271092 -0.981147 3.963641 -0.000001 -0.000002 -0.000001 0.482588 4.482610 -23.672833 0.882619 3.094085 -31.835416 0.339550 1.967255 -19.583710 -0.000001 0.000000 -0.000001 2.472629 8.725466 -25.291226 1.505150 3.921415 -41.983721 0.476272 2.315658 -23.241419 -0.000000 -0.000001 -0.000000 3.075100 8.499026 -34.793462 1.107106 3.428812 -35.780052 0.533261 2.443991 -24.613654 -0.000001 0.000001 -0.000001 3.603256 12.761697 -45.581302 0.673755 2.729593 -27.725811 0.089997 1.024025 -10.045309 -0.000002 -0.000003 0.000000 0.372577 31.286409 9.795021 0.000000 0.000000 0.000000 -31.370557 33.055134 15.760108 0.000000 24.457939 0.000008 0.679514 -3.567369 9.936558 -0.201458 3.035680 -7.196444 8.074868 6.487011 -14.042696 4.047561 15.560887 -37.376182 0.000000 0.000000 0.000001 -3.680999 8.704001 18.305336 0.000001 0.000004 0.000007 0.115859 -1.033408 12.793101 -0.000000 0.000000 0.000000 -0.122508 9.697890 1.310446 0.695577 -2.450421 31.690001 0.176452 -1.271099 15.805867 0.000001 -0.000003 -0.000003 -0.568029 7.106803 4.104984 0.435126 -1.967378 24.940318 0.261905 -1.541265 19.286863 -0.000000 -0.000001 0.000001 -8.414086 -1.159766 -7.809538 0.946319 -2.816009 37.143675 0.177126 -1.273474 15.836140 0.000001 0.000002 -0.000003 -82.416764 -7.102049 10.426758 45.325702 7.785821 -5.156988 -8.933764 15.620106 -6.266969 -6.482809 -0.000002 0.000001 -0.000000 -0.000000 -0.000000 -60.780877 7.373821 -9.067126 61.026757 -0.146557 -3.249453 -6.409400 -3.140372 5.342723 -18.908675 -0.302516 6.198639 0.000000 0.000000 0.000000 
9.900952 82.578583 -11.510025 49.799442 -8.182084 4.975813 6.229858 -0.548586 -1.569822 14.598365 1.342920 -0.303597 0.000000 0.000000 0.000000 25.054382 1.591056 0.352064 -23.262072 -0.523337 3.642466 -17.013873 7.039135 -4.179065 -0.000000 -0.000000 -0.000000 3.185962 -10.858426 -1.510806 0.000000 0.000000 0.000000 -21.370315 -33.790394 -32.751321 -0.000004 -39.584348 -0.000000 -7.431440 -8.192861 26.988640 0.699747 -6.020113 19.223935 19.074644 26.512426 -1.026319 3.271091 -0.981155 3.963648 -0.000000 -0.000003 -0.000004 0.482308 4.482712 -23.672715 0.882610 3.094096 -31.835525 0.339553 1.967270 -19.583708 -0.000001 0.000001 -0.000001 2.472808 8.725545 -25.292928 1.505039 3.921303 -41.982010 0.476276 2.315652 -23.241431 -0.000001 -0.000001 -0.000001 3.075298 8.499113 -34.795405 1.106984 3.428632 -35.778102 0.533262 2.443991 -24.613645 -0.000001 0.000000 0.000001 3.603258 12.761699 -45.581291 0.673761 2.729594 -27.725824 0.089998 1.024033 -10.045309 0.000001 0.000001 0.000001 0.370552 30.945924 9.971295 0.000000 0.000000 0.000000 -30.635625 32.079947 17.167380 0.000002 24.089833 -0.000003 0.446897 -3.220479 11.623268 -0.201457 3.035677 -7.196426 8.074868 6.487020 -14.042714 4.023652 15.567126 -37.370229 -0.000000 0.000000 -0.000002 -3.681004 8.703998 18.305334 -0.000003 0.000009 0.000001 0.115857 -1.033406 12.793089 -0.000001 -0.000001 -0.000000 -0.122501 9.697903 1.310404 0.695577 -2.450427 31.690053 0.176457 -1.271110 15.805843 -0.000001 0.000002 -0.000001 -0.568000 7.106810 4.104857 0.435127 -1.967388 24.940489 0.261902 -1.541273 19.286853 0.000001 0.000002 -0.000000 -8.414087 -1.159774 -7.809538 0.946322 -2.816027 37.143655 0.177125 -1.273470 15.836142 0.000002 -0.000003 0.000000 -79.655531 -6.787672 10.745511 44.090258 7.625525 -5.191905 -9.208009 15.832054 -6.130247 -6.397556 0.000002 0.000004 -0.000001 0.000001 -0.000000 -61.832746 7.107508 -9.394631 59.694706 -1.247021 -2.836564 -7.211925 -3.152882 5.067901 -18.020319 -0.194843 4.897109 0.000001 -0.000001 0.000000 
